<?xml version="1.0" ?><svg viewBox="0 0 64 64" xmlns="http://www.w3.org/2000/svg" stroke="white" fill="white"><path d="M47.51.048C46.798-.736 5.573 8.38 4.93 8.665c-.642.285-.965 10.328-.927 10.61.143 1.07 8.987 35.395 10.27 39.24s2.497 5.34 3.14 5.484c.64.14 39.726-10.614 40.94-11.47 1.21-.854 1.283-4.13 1.64-5.554C60.348 45.554 48.223.83 47.51.046zm9.344 50.35c-.285.355-37.66 11.465-38.3 11.18 0 0-.358-2.208.07-2.35s38.444-11.11 38.515-10.682c.07.426 0 1.495-.288 1.85zm-38.016 6.906C18.41 56.806 7.07 11.442 7.284 10.516c.116-.5 37.73-8.617 38.23-8.118.5.5 12.268 44.296 11.91 44.51-.356.213-38.158 10.895-38.586 10.396z"/><path d="M23.403 9.52c-.642-.642-12.638 2.352-12.553 2.776.07.356 3.85 15.17 4.137 15.454s11.34-2.208 12.054-2.635c.716-.427-2.993-14.955-3.635-15.596zm.143 15.026c-.428.285-5.42 1.852-5.706 1.71 0 0-.713-1.853-.143-2.778.57-.926 1.426-1.496 1.426-1.496s-2.068-2.493-2.068-3.347.713-1.78 2.068-1.852c1.355-.07 1.926 1.068 1.64 2.065-.285.997-.713 2.493-.143 2.493s1.355.145 2.068 1c.715.855 1.286 1.923.858 2.208zm1.57-.428s-.928-4.63-2.997-4.202c0 0 .996-5.412-3.355-4.7-4.35.712-3.424 4.63-1.57 6.338 0 0-1.64.997-.926 4.487h-.357s-3.495-12.46-3.21-12.53c.285-.07 9.63-2.28 9.63-2.28l3.494 12.747-.713.143zM29.038 9.52c.184-.306 12.125-2.707 12.482-2.778.357-.07 1.284 1.78.927 1.923-.357.142-12.767 2.99-13.052 2.85-.286-.144-.57-1.64-.357-1.996zm.998 4.343c.214 0 12.268-2.564 12.696-2.35.428.214.285 2.28.285 2.28S30.892 16.07 30.677 16c-.213-.07-.64-2.137-.64-2.137zm1.427 6.34c.214-.143 12.268-2.778 12.41-2.565.143.214 1.284 1.71.856 1.923S31.745 22.2 31.745 22.2s-.5-1.852-.285-1.994zM17.483 33.02c.182-.182 28.6-7.406 28.744-7.193.143.214.5 1.923.5 1.923s-28.816 7.335-29.03 7.193c-.214-.142-.57-1.567-.214-1.923zm1.213 5.555c.214-.07 28.6-7.478 28.886-7.193s.57 1.923.57 1.923-28.814 7.193-29.028 7.193c-.214 0-.428-1.923-.428-1.923zm1.14 6.552s29.387-8.83 29.6-8.617c.214.214.856 1.424.57 1.78-.284.356-29.884 8.688-29.884 8.688s-.57-1.71-.285-1.85zm17.618 1.283c.164-.274 12.268-3.847 12.624-3.847.357 0 1.426 1.353.785 1.78-.642.427-12.767 4.344-13.052 4.13-.283-.213-.57-1.708-.354-2.064z"/></svg>
